<svg width="448" height="271" viewBox="0 0 448 271" fill="none" xmlns="http://www.w3.org/2000/svg">
<path d="M161.027 0C148.267 12.1027 135.354 24.0291 122.458 35.979L103.08 53.8216L83.6022 71.5938L73.825 80.4886L64.0478 89.3013L44.4876 106.985L5.20862 142.177L5.09705 138.593C18.2037 148.945 31.3046 159.268 44.3525 169.678C57.4005 180.089 70.4661 190.482 83.4554 200.981C96.4446 211.48 109.428 221.961 122.376 232.501C135.324 243.04 148.214 253.651 161.027 264.379C147.597 254.444 134.291 244.356 120.984 234.275C107.678 224.193 94.4305 214.023 81.2181 203.813C68.0057 193.602 54.8226 183.373 41.6337 173.133C28.4448 162.893 15.3499 152.57 2.20207 142.253L0 140.526L2.09049 138.652L41.4987 103.636L61.282 86.211L71.1766 77.4982L81.1006 68.8207L101.001 51.4892L120.932 34.2282C134.238 22.7718 147.556 11.3037 161.027 0Z" fill="white"/>
<path d="M286.973 0.135132C300.444 11.4388 313.762 22.9128 327.08 34.3634L347.046 51.6244L366.911 68.9559L376.841 77.6334L386.712 86.3637L406.501 103.789L445.904 138.822L448 140.679L445.798 142.406C432.65 152.699 419.544 163.039 406.366 173.286C393.189 183.532 380.024 193.801 366.776 203.971C353.528 214.141 340.298 224.287 327.016 234.416C313.733 244.544 300.403 254.585 286.973 264.52C299.775 253.804 312.699 243.228 325.618 232.653C338.537 222.078 351.526 211.585 364.545 201.133C377.563 190.682 390.605 180.253 403.648 169.831C416.69 159.409 429.843 149.08 442.903 138.711L442.791 142.295L403.512 107.12L383.952 89.4423L374.175 80.6297L364.427 71.7524L344.949 53.9568L325.536 36.1141C312.646 24.1642 299.734 12.2378 286.973 0.135132Z" fill="white"/>
<path d="M139.041 85.4061C139.27 90.5979 137.745 95.7155 134.714 99.9352C133.938 101.004 133.04 102.068 132.823 103.372C132.1 107.72 138.695 109.582 140.233 113.718C141.202 116.356 139.869 119.229 138.566 121.72C134.661 129.175 130.726 136.678 125.559 143.317C123.21 146.378 120.38 149.779 120.961 153.616C121.701 158.451 127.297 160.766 132.118 161.53C134.25 161.87 136.786 162.358 137.62 164.35C138.372 166.112 136.569 168.21 135.682 169.584C134.849 170.744 134.251 172.055 133.921 173.444C133.712 174.421 133.884 175.44 134.402 176.294" stroke="white" stroke-width="2" stroke-miterlimit="10"/>
<path d="M134.126 175.665C135.524 179.543 137.391 181.193 138.865 181.975C139.863 182.504 141.161 182.891 141.32 183.849C141.508 184.977 140.292 185.77 139.634 186.71C138.278 188.631 139.341 191.316 140.756 193.173C142.171 195.029 143.997 196.856 144.221 199.195C144.497 202.056 142.67 203.337 141.502 206.597C139.071 213.365 142.582 222.971 148.12 225.28C150.04 226.079 152.295 226.044 153.992 226.015C155.918 225.965 157.828 225.644 159.664 225.063C162.771 224.087 163.329 223.13 169.125 219.775C170.575 218.929 172.648 217.725 175.355 216.415C178.062 215.104 180.452 214.141 182.067 213.536" stroke="white" stroke-width="2" stroke-miterlimit="10"/>
<path d="M234.746 126.767C235.089 124.625 235.891 122.583 237.095 120.78C237.673 119.861 238.315 118.983 239.015 118.154C239.708 117.323 240.453 116.538 241.247 115.804C242.838 114.301 244.637 113.037 246.59 112.05C247.581 111.556 248.622 111.174 249.697 110.91C250.784 110.626 251.912 110.528 253.032 110.622C254.173 110.721 255.282 111.05 256.291 111.591C257.278 112.159 258.152 112.904 258.869 113.789C260.261 115.549 261.215 117.615 261.652 119.816C262.466 124.12 262.576 128.527 261.975 132.865C261.373 137.184 260.161 141.395 258.376 145.373C257.959 146.378 257.43 147.329 256.943 148.311C256.455 149.292 255.892 150.22 255.281 151.125C254.67 152.03 254.071 152.934 253.431 153.816C253.108 154.256 252.75 154.662 252.41 155.09C252.069 155.519 251.723 155.936 251.347 156.33L250.249 157.535L249.121 158.71C248.358 159.485 247.577 160.243 246.772 160.948C245.94 161.665 245.048 162.31 244.106 162.875C243.153 163.461 242.097 163.86 240.994 164.05C239.87 164.219 238.722 164.03 237.711 163.509C236.737 162.979 235.896 162.233 235.251 161.33C233.936 159.568 233.326 157.378 233.542 155.19C233.452 157.333 234.138 159.436 235.474 161.112C236.12 161.942 236.942 162.616 237.882 163.086C238.819 163.519 239.869 163.646 240.882 163.451C241.901 163.244 242.872 162.845 243.742 162.276C244.643 161.725 245.492 161.094 246.279 160.39C247.072 159.685 247.818 158.921 248.552 158.14L249.644 156.965L250.689 155.76C256.211 149.213 259.732 141.214 260.83 132.718C261.108 130.611 261.246 128.487 261.241 126.361C261.25 124.246 261.054 122.135 260.654 120.057C260.269 118.012 259.403 116.086 258.129 114.441C257.497 113.644 256.725 112.969 255.851 112.449C254.969 111.949 253.993 111.635 252.985 111.527C251.96 111.41 250.923 111.474 249.92 111.715C248.895 111.939 247.898 112.278 246.948 112.725C245.028 113.642 243.248 114.829 241.663 116.25C240.855 116.947 240.092 117.694 239.379 118.489C238.657 119.278 237.99 120.117 237.383 120.997C236.766 121.872 236.23 122.8 235.78 123.77C235.304 124.719 234.956 125.727 234.746 126.767V126.767Z" fill="white"/>
<path d="M233.237 174.39C231.534 178.144 229.596 181.787 227.705 185.441C225.814 189.095 223.947 192.803 221.416 196.14C220.789 196.983 220.102 197.78 219.361 198.525C218.61 199.263 217.805 199.944 216.953 200.564C215.258 201.786 213.461 202.86 211.58 203.771C207.845 205.571 203.985 207.099 200.03 208.342C196.095 209.6 192.143 210.722 188.238 212.008C184.333 213.295 180.475 214.67 176.664 216.191C174.762 216.922 172.93 217.825 171.191 218.888C169.43 219.951 167.791 221.168 166.047 222.29C164.305 223.425 162.422 224.328 160.445 224.975C158.473 225.598 156.424 225.947 154.356 226.014C156.4 225.817 158.411 225.369 160.346 224.681C162.258 223.963 164.069 222.997 165.73 221.808C167.422 220.633 169.054 219.393 170.798 218.283C172.546 217.151 174.393 216.181 176.318 215.386C183.899 212.073 191.862 209.758 199.672 207.249C203.585 206.055 207.408 204.581 211.111 202.837C212.944 201.969 214.698 200.943 216.354 199.77C217.996 198.597 219.463 197.197 220.712 195.611C223.254 192.433 225.157 188.766 227.2 185.194C229.244 181.622 231.299 178.015 233.237 174.39Z" fill="white"/>
<path d="M191.574 13.407C187.64 15.9097 183.277 17.6311 178.884 19.1528C174.492 20.6744 170.029 22.0081 165.73 23.7588C161.419 25.4555 157.346 27.707 153.616 30.4564C149.874 33.1665 146.85 36.7504 144.808 40.8965L144.309 40.4323C150.493 36.8515 156.977 33.8163 163.687 31.3612L163.992 32.1955C157.953 34.4148 152.378 37.7356 147.55 41.9892C142.755 46.2987 138.567 51.2398 135.101 56.6769C131.578 62.0703 128.43 67.7397 125.189 73.3563C121.948 78.9729 118.559 84.519 114.519 89.6773L114.237 88.7608C117.351 89.7035 120.625 89.9935 123.856 89.6127C127.1 89.2177 130.259 88.3074 133.216 86.916C139.155 84.0641 144.447 80.0252 148.766 75.0483C149.851 73.8299 150.833 72.5231 151.702 71.1414C152.612 69.7608 153.499 68.3566 154.38 66.9525C156.141 64.1442 157.903 61.3183 159.729 58.5335C161.555 55.7487 163.429 52.9933 165.437 50.3084C167.433 47.6134 169.646 45.0865 172.055 42.753C173.272 41.5758 174.604 40.5229 176.03 39.6098C177.474 38.6552 179.121 38.0516 180.84 37.8473C181.722 37.7664 182.611 37.8582 183.459 38.1176C184.297 38.3832 185.08 38.7971 185.772 39.3396C187.118 40.433 188.168 41.8471 188.826 43.4521C189.461 45.0026 189.941 46.6124 190.259 48.2579C190.347 48.6516 190.417 49.1157 190.517 49.433C190.617 49.7502 190.746 49.8148 191.104 49.7796C191.873 49.6327 192.719 49.4447 193.518 49.2802C196.765 48.587 199.977 47.8643 203.218 47.0594C216.146 44 228.751 39.7072 240.859 34.24C228.817 39.89 216.262 44.3716 203.365 47.6234C200.147 48.4636 196.906 49.2097 193.659 49.9323C192.836 50.1086 192.061 50.2907 191.198 50.4611C190.918 50.5122 190.629 50.4688 190.376 50.3377C190.129 50.1839 189.945 49.9462 189.859 49.668C189.707 49.1921 189.66 48.8278 189.56 48.4107C189.226 46.7987 188.733 45.2242 188.086 43.7106C187.469 42.2433 186.498 40.9516 185.261 39.9506C184.019 38.9636 182.441 38.4999 180.863 38.6581C179.278 38.8709 177.764 39.4502 176.441 40.3501C175.078 41.2437 173.805 42.2689 172.642 43.411C170.292 45.7312 168.132 48.2362 166.183 50.9017C164.204 53.5455 162.342 56.2892 160.534 59.0681C158.725 61.847 156.981 64.6671 155.219 67.4871C154.338 68.8971 153.458 70.3071 152.536 71.6995C151.643 73.1289 150.629 74.4792 149.506 75.7357C145.107 80.8376 139.712 84.9844 133.651 87.9206C130.586 89.3678 127.312 90.3196 123.95 90.7407C120.56 91.154 117.121 90.8497 113.856 89.8477L113.045 89.595L113.568 88.9311C117.561 83.8844 120.937 78.356 124.185 72.7688C127.432 67.1816 130.591 61.5004 134.168 56.0659C137.7 50.5694 141.963 45.5789 146.84 41.2313C151.769 36.9102 157.472 33.5613 163.646 31.3612L163.951 32.1955C157.272 34.5831 150.812 37.5455 144.643 41.0492L143.657 41.6367L144.144 40.6145C146.269 36.372 149.4 32.7149 153.264 29.9629C157.068 27.2385 161.214 25.0262 165.595 23.3828C169.947 21.6849 174.404 20.4453 178.837 18.9589C183.271 17.4725 187.604 15.8627 191.574 13.407Z" fill="white"/>
<path d="M189.924 48.4459C188.309 47.9348 186.718 47.4589 185.103 47.0829C183.5 46.7061 181.877 46.4275 180.241 46.2487C178.603 46.0654 176.956 45.9791 175.308 45.9901C173.652 45.9901 171.996 46.1077 170.305 46.2428C171.897 45.6392 173.561 45.2442 175.255 45.0678C178.666 44.6932 182.118 45.0804 185.361 46.2017C186.974 46.7447 188.509 47.4993 189.924 48.4459V48.4459Z" fill="white"/>
<path d="M212.291 93.5725C210.894 94.8641 209.255 95.8669 207.469 96.5232C205.684 97.1795 203.786 97.4765 201.885 97.3972L202.114 96.7039C203.907 97.8325 205.542 99.1936 206.977 100.752C208.41 102.321 209.635 104.069 210.623 105.951C211.11 106.903 211.535 107.884 211.897 108.889C212.254 109.89 212.548 110.912 212.778 111.95C213.23 114.012 213.489 116.062 214.193 117.925C214.932 119.775 216.148 121.397 217.717 122.625C218.5 123.253 219.346 123.798 220.242 124.252C220.692 124.483 221.155 124.689 221.628 124.869C222.092 125.064 222.568 125.227 223.055 125.357C226.954 126.467 231.276 125.868 235.051 124.182C231.428 126.179 227.036 127.119 222.849 126.12C220.761 125.621 218.799 124.693 217.088 123.394C216.229 122.734 215.454 121.97 214.781 121.121C214.095 120.268 213.548 119.312 213.16 118.289C212.379 116.256 212.097 114.176 211.663 112.161C211.241 110.175 210.564 108.251 209.648 106.439C207.808 102.785 205.085 99.6489 201.727 97.3149L200.552 96.5041L201.944 96.6216C203.773 96.775 205.614 96.5898 207.376 96.0753C209.15 95.5415 210.815 94.6938 212.291 93.5725V93.5725Z" fill="white"/>
<path d="M261.799 129.528C263.211 131.395 264.394 133.425 265.322 135.573C266.263 137.75 266.842 140.066 267.037 142.43C267.184 144.792 267.01 147.164 266.52 149.48C266.299 150.592 266.168 151.719 266.127 152.852C266.114 153.951 266.297 155.043 266.667 156.077C267.301 158.169 269.045 159.72 270.737 161.277C272.428 162.834 274.26 164.297 276.022 165.771C279.627 168.697 283.311 171.531 287.073 174.273C283.053 171.908 279.175 169.311 275.458 166.494C273.591 165.088 271.766 163.627 269.985 162.111C269.081 161.341 268.228 160.513 267.431 159.632C266.586 158.721 265.944 157.642 265.546 156.465C265.137 155.301 264.938 154.074 264.958 152.84C265.003 151.645 265.153 150.455 265.405 149.286C265.922 147.054 266.157 144.767 266.104 142.477C265.951 137.918 264.213 133.488 261.799 129.528Z" fill="white"/>
<path d="M302.64 220.351C299.901 218.423 297.533 216.015 295.652 213.242C293.778 210.464 292.266 207.457 291.154 204.294C288.888 197.984 287.86 191.31 287.255 184.66C286.557 177.989 286.579 171.262 287.32 164.596C288.164 157.915 290.113 151.421 293.086 145.379C296.072 139.342 299.937 133.783 304.555 128.882L308.013 125.263C309.188 124.058 310.309 122.848 311.402 121.602C313.622 119.158 315.553 116.465 317.156 113.577C318.674 110.659 319.726 107.521 320.274 104.277C320.825 101.022 321.005 97.7143 320.809 94.4185C320.626 91.1169 320.186 87.8345 319.493 84.6012C319.141 82.9797 318.765 81.364 318.284 79.7778L317.561 77.4277L317.379 76.8402L317.285 76.5465C317.259 76.4634 317.226 76.3829 317.186 76.3056C317.109 76.1235 317.015 75.9296 316.927 75.7181C316.808 75.4616 316.74 75.1841 316.728 74.9014L316.769 75.1129C313.874 67.7867 309.652 61.0127 304.848 54.7852C303.674 53.2165 302.411 51.6772 301.155 50.1497L299.264 47.8408C298.609 47.0571 298.007 46.2308 297.461 45.3674C297.297 45.0988 297.178 44.8051 297.109 44.4979C297.091 44.3732 297.091 44.2466 297.109 44.1219C297.135 43.9519 297.213 43.7941 297.332 43.6695C297.438 43.5653 297.567 43.4872 297.709 43.4413C297.85 43.3955 298.001 43.3831 298.148 43.4051C298.447 43.4607 298.737 43.5555 299.011 43.6871L299.698 43.9985C300.575 44.3997 301.485 44.724 302.417 44.9679C304.285 45.4499 306.215 45.6479 308.142 45.5554C308.62 45.5384 309.096 45.4972 309.569 45.432C310.015 45.3803 310.451 45.2697 310.867 45.103C310.961 45.0719 311.05 45.0285 311.131 44.9738C311.201 44.9375 311.265 44.8899 311.319 44.8328C311.413 44.727 311.46 44.6683 311.449 44.5801C311.345 44.2328 311.14 43.9241 310.861 43.693C310.149 43.0555 309.383 42.4814 308.571 41.9775C307.749 41.4487 306.903 40.9435 306.052 40.4382C302.64 38.4466 299.17 36.5019 295.764 34.4515C288.921 30.3933 282.359 25.8789 276.122 20.9388C273.003 18.4713 270.014 15.8216 267.09 13.1602C265.61 11.8559 264.154 10.5282 262.392 9.74089C260.612 8.98035 258.707 8.55034 256.773 8.47187C252.868 8.24862 249.139 9.75264 245.345 10.9453C241.567 12.2039 237.695 13.1606 233.765 13.8065C232.785 13.9827 231.798 14.112 230.829 14.2295C229.86 14.347 228.856 14.4762 227.893 14.5467C225.909 14.7112 223.918 14.7758 221.933 14.7935C217.958 14.7935 214 14.7112 210.03 14.629C202.052 14.394 194.117 13.826 186.224 12.9252C194.117 13.7085 202.03 14.1609 209.966 14.2823C217.887 14.2823 225.862 14.6525 233.642 13.1778C237.538 12.5019 241.375 11.5197 245.116 10.2403C246.996 9.62339 248.863 8.95363 250.801 8.42487C252.742 7.8514 254.761 7.58576 256.784 7.63761C258.824 7.70156 260.835 8.14174 262.715 8.93601C263.649 9.37603 264.526 9.92633 265.328 10.5752C266.133 11.192 266.89 11.8442 267.636 12.5022C270.572 15.1518 273.567 17.7486 276.685 20.1809C282.917 25.0593 289.459 29.5279 296.269 33.5585C299.663 35.5971 303.122 37.5183 306.563 39.5158C307.42 40.0211 308.278 40.5322 309.123 41.0786C310 41.6159 310.826 42.2335 311.589 42.9234C311.796 43.1166 311.981 43.3313 312.141 43.5638C312.351 43.8419 312.478 44.174 312.505 44.5214C312.516 44.7206 312.482 44.9196 312.407 45.1043C312.332 45.2891 312.217 45.4551 312.071 45.5907C311.957 45.7148 311.824 45.8199 311.678 45.902C311.551 45.9832 311.418 46.052 311.278 46.1077C310.773 46.3085 310.244 46.4447 309.704 46.513C309.194 46.584 308.681 46.6291 308.166 46.6482C307.154 46.6874 306.14 46.6678 305.13 46.5894C304.106 46.5073 303.092 46.3303 302.1 46.0607C301.116 45.788 300.157 45.4303 299.234 44.9914L298.565 44.6506C298.392 44.5678 298.211 44.5029 298.025 44.4568C297.954 44.4568 298.066 44.4568 298.148 44.3745C298.23 44.2923 298.213 44.1924 298.219 44.2453C298.269 44.4204 298.342 44.5882 298.436 44.7446C298.955 45.5646 299.528 46.3497 300.15 47.0947L302.03 49.386C303.298 50.9194 304.549 52.4645 305.764 54.0449C310.745 60.3074 314.806 67.2493 317.826 74.6606L317.873 74.7722V74.8662C317.888 75.0027 317.925 75.1357 317.984 75.2598C318.049 75.4302 318.137 75.6123 318.231 75.8121C318.272 75.912 318.319 76.0177 318.366 76.147L318.46 76.4525L318.642 77.04L319.37 79.4546C319.852 81.0703 320.239 82.7094 320.586 84.3545C321.284 87.6442 321.724 90.9836 321.901 94.3421C322.09 97.7199 321.893 101.108 321.314 104.441C321.013 106.109 320.597 107.754 320.069 109.365C319.543 110.988 318.873 112.561 318.066 114.065C316.421 117.025 314.439 119.785 312.159 122.29C311.049 123.553 309.892 124.769 308.736 125.968L305.271 129.581C300.677 134.38 296.824 139.837 293.838 145.773C290.859 151.715 288.888 158.112 288.007 164.702C287.114 171.294 287.273 177.992 287.766 184.63C288.259 191.269 289.222 197.92 291.395 204.23C292.461 207.387 293.926 210.396 295.752 213.183C297.598 215.968 299.931 218.397 302.64 220.351V220.351Z" fill="white"/>
<path d="M197.657 49.2156C197.458 49.6616 197.337 50.1385 197.299 50.6256C197.284 51.1085 197.337 51.5912 197.458 52.0591C197.728 52.9872 198.183 53.8506 198.797 54.5972C199.971 56.1364 201.733 57.0706 203.359 58.1222C204.205 58.6451 205.008 59.2344 205.761 59.8847C206.533 60.5672 207.17 61.3882 207.64 62.3053C208.48 64.1543 208.947 66.1507 209.014 68.1804C209.229 72.2046 208.451 76.2199 206.748 79.8718C205.071 83.5477 202.499 86.7436 199.266 89.1662V88.232C201.622 89.7874 204.17 91.0278 206.847 91.9216C209.533 92.8008 212.337 93.2644 215.162 93.2963C218.01 93.2866 220.849 92.9854 223.636 92.3974C225.039 92.1272 226.449 91.8511 227.84 91.5221C229.232 91.1931 230.6 90.8875 231.951 90.4763C229.256 91.4804 226.498 92.3047 223.695 92.9438C220.892 93.6791 218.017 94.0989 215.121 94.1952C212.197 94.248 209.284 93.8355 206.489 92.9732C203.698 92.1033 201.04 90.8519 198.591 89.2543L197.91 88.8078L198.562 88.3201C201.607 85.968 204.05 82.9255 205.69 79.4434C207.33 75.9612 208.119 72.1391 207.992 68.292C207.986 66.387 207.603 64.502 206.865 62.7459C206.078 61.048 204.569 59.8084 202.978 58.6862C202.179 58.0987 201.363 57.5699 200.582 56.9531C199.785 56.3471 199.083 55.6264 198.497 54.8145C197.899 54.0084 197.472 53.0889 197.241 52.112C197.143 51.6228 197.121 51.1214 197.176 50.6256C197.25 50.1304 197.413 49.6527 197.657 49.2156V49.2156Z" fill="white"/>
<path d="M157.656 226.15C160.782 224.538 164.096 223.323 167.521 222.531C170.954 221.682 174.487 221.308 178.021 221.42C179.809 221.481 181.583 221.755 183.306 222.237C185.063 222.712 186.714 223.52 188.168 224.616C189.634 225.743 190.805 227.208 191.58 228.887C192.247 230.554 192.718 232.293 192.983 234.069C194.298 240.902 196.543 247.522 199.654 253.745C202.786 259.992 206.736 265.795 211.398 271C206.38 266.066 202.154 260.386 198.867 254.162C195.555 247.924 193.19 241.227 191.85 234.292C191.609 232.605 191.174 230.951 190.552 229.363C190.2 228.611 189.767 227.9 189.26 227.242C188.742 226.59 188.151 225.999 187.499 225.48C186.167 224.445 184.65 223.674 183.03 223.206C181.386 222.728 179.694 222.43 177.986 222.319C174.522 222.128 171.049 222.383 167.651 223.077C164.213 223.717 160.86 224.748 157.656 226.15V226.15Z" fill="white"/>
</svg>
