<svg width="109" height="16" viewBox="0 0 109 16" fill="none" xmlns="http://www.w3.org/2000/svg">
<path d="M12.4805 13.5645C11.8294 14.1243 11.1003 14.554 10.293 14.8535C9.48568 15.153 8.64909 15.3027 7.7832 15.3027C7.11914 15.3027 6.47786 15.2148 5.85938 15.0391C5.2474 14.8698 4.67122 14.6289 4.13086 14.3164C3.59701 13.9974 3.10872 13.6165 2.66602 13.1738C2.22331 12.7311 1.84245 12.2428 1.52344 11.709C1.21094 11.1686 0.966797 10.5924 0.791016 9.98047C0.621745 9.36198 0.537109 8.7207 0.537109 8.05664C0.537109 7.39258 0.621745 6.7513 0.791016 6.13281C0.966797 5.51432 1.21094 4.93815 1.52344 4.4043C1.84245 3.86393 2.22331 3.3724 2.66602 2.92969C3.10872 2.48698 3.59701 2.10938 4.13086 1.79688C4.67122 1.47786 5.2474 1.23372 5.85938 1.06445C6.47786 0.888672 7.11914 0.800781 7.7832 0.800781C8.64909 0.800781 9.48568 0.950521 10.293 1.25C11.1003 1.54297 11.8294 1.97266 12.4805 2.53906L10.9961 4.98047C10.5859 4.53776 10.1009 4.19922 9.54102 3.96484C8.98112 3.72396 8.39518 3.60352 7.7832 3.60352C7.16471 3.60352 6.58529 3.7207 6.04492 3.95508C5.50456 4.18945 5.03255 4.50846 4.62891 4.91211C4.22526 5.30924 3.90625 5.78125 3.67188 6.32812C3.4375 6.86849 3.32031 7.44466 3.32031 8.05664C3.32031 8.66862 3.4375 9.24479 3.67188 9.78516C3.90625 10.319 4.22526 10.7878 4.62891 11.1914C5.03255 11.5951 5.50456 11.9141 6.04492 12.1484C6.58529 12.3828 7.16471 12.5 7.7832 12.5C8.39518 12.5 8.98112 12.3828 9.54102 12.1484C10.1009 11.9076 10.5859 11.5658 10.9961 11.123L12.4805 13.5645ZM30.0109 15H20.4113V0.996094H30.0109V3.79883H23.2141V6.60156H27.8137V9.4043H23.2141V12.1973H30.0109V15ZM41.0766 3.79883V9.4043H43.8793C44.2634 9.4043 44.6247 9.33268 44.9633 9.18945C45.3018 9.03971 45.598 8.83789 45.852 8.58398C46.1059 8.33008 46.3044 8.03385 46.4477 7.69531C46.5974 7.35026 46.6723 6.98568 46.6723 6.60156C46.6723 6.21745 46.5974 5.85612 46.4477 5.51758C46.3044 5.17253 46.1059 4.87305 45.852 4.61914C45.598 4.36523 45.3018 4.16667 44.9633 4.02344C44.6247 3.8737 44.2634 3.79883 43.8793 3.79883H41.0766ZM41.0766 15H38.2738V0.996094H43.8793C44.3936 0.996094 44.8884 1.06445 45.3637 1.20117C45.8389 1.33138 46.2816 1.52018 46.6918 1.76758C47.1085 2.00846 47.4861 2.30143 47.8246 2.64648C48.1697 2.98503 48.4626 3.36263 48.7035 3.7793C48.9509 4.19596 49.1397 4.64193 49.2699 5.11719C49.4066 5.59245 49.475 6.08724 49.475 6.60156C49.475 7.08333 49.4131 7.55208 49.2895 8.00781C49.1723 8.46354 48.9997 8.89648 48.7719 9.30664C48.5505 9.7168 48.2771 10.0944 47.9516 10.4395C47.626 10.7845 47.2615 11.084 46.8578 11.3379L48.4105 15H45.432L44.2113 12.1777L41.0766 12.1973V15ZM65.8629 9.4043V6.60156C65.8629 6.21745 65.788 5.85612 65.6383 5.51758C65.4951 5.17253 65.2965 4.87305 65.0426 4.61914C64.7887 4.36523 64.4892 4.16667 64.1441 4.02344C63.8056 3.8737 63.4443 3.79883 63.0602 3.79883C62.676 3.79883 62.3115 3.8737 61.9664 4.02344C61.6279 4.16667 61.3316 4.36523 61.0777 4.61914C60.8238 4.87305 60.622 5.17253 60.4723 5.51758C60.329 5.85612 60.2574 6.21745 60.2574 6.60156V9.4043H65.8629ZM68.6656 15H65.8629V12.1973H60.2574V15H57.4645V6.60156C57.4645 5.82682 57.6109 5.10091 57.9039 4.42383C58.1969 3.74023 58.594 3.14453 59.0953 2.63672C59.6031 2.12891 60.1956 1.72852 60.8727 1.43555C61.5563 1.14258 62.2854 0.996094 63.0602 0.996094C63.8349 0.996094 64.5608 1.14258 65.2379 1.43555C65.9215 1.72852 66.5172 2.12891 67.025 2.63672C67.5328 3.14453 67.9332 3.74023 68.2262 4.42383C68.5191 5.10091 68.6656 5.82682 68.6656 6.60156V15ZM82.8465 15H80.0535V3.79883H75.8445V0.996094H87.0457V3.79883H82.8465V15ZM108.102 8.05664C108.102 8.7207 108.014 9.36198 107.838 9.98047C107.669 10.5924 107.428 11.1686 107.115 11.709C106.803 12.2428 106.425 12.7311 105.982 13.1738C105.54 13.6165 105.051 13.9974 104.518 14.3164C103.984 14.6289 103.408 14.8698 102.789 15.0391C102.171 15.2148 101.529 15.3027 100.865 15.3027C100.201 15.3027 99.5599 15.2148 98.9414 15.0391C98.3294 14.8698 97.7533 14.6289 97.2129 14.3164C96.679 13.9974 96.1908 13.6165 95.748 13.1738C95.3053 12.7311 94.9245 12.2428 94.6055 11.709C94.293 11.1686 94.0488 10.5924 93.873 9.98047C93.7038 9.36198 93.6191 8.7207 93.6191 8.05664C93.6191 7.39258 93.7038 6.7513 93.873 6.13281C94.0488 5.51432 94.293 4.93815 94.6055 4.4043C94.9245 3.87044 95.3053 3.38216 95.748 2.93945C96.1908 2.49674 96.679 2.11914 97.2129 1.80664C97.7533 1.49414 98.3294 1.25326 98.9414 1.08398C99.5599 0.908203 100.201 0.820312 100.865 0.820312C101.529 0.820312 102.171 0.908203 102.789 1.08398C103.408 1.25326 103.984 1.49414 104.518 1.80664C105.051 2.11914 105.54 2.49674 105.982 2.93945C106.425 3.38216 106.803 3.87044 107.115 4.4043C107.428 4.93815 107.669 5.51432 107.838 6.13281C108.014 6.7513 108.102 7.39258 108.102 8.05664ZM105.318 8.05664C105.318 7.44466 105.201 6.86849 104.967 6.32812C104.732 5.78125 104.413 5.30924 104.01 4.91211C103.613 4.50846 103.141 4.18945 102.594 3.95508C102.053 3.7207 101.477 3.60352 100.865 3.60352C100.247 3.60352 99.6673 3.7207 99.127 3.95508C98.5866 4.18945 98.1146 4.50846 97.7109 4.91211C97.3073 5.30924 96.9883 5.78125 96.7539 6.32812C96.5195 6.86849 96.4023 7.44466 96.4023 8.05664C96.4023 8.66862 96.5195 9.24479 96.7539 9.78516C96.9883 10.319 97.3073 10.7878 97.7109 11.1914C98.1146 11.5951 98.5866 11.9141 99.127 12.1484C99.6673 12.3828 100.247 12.5 100.865 12.5C101.477 12.5 102.053 12.3828 102.594 12.1484C103.141 11.9141 103.613 11.5951 104.01 11.1914C104.413 10.7878 104.732 10.319 104.967 9.78516C105.201 9.24479 105.318 8.66862 105.318 8.05664Z" fill="white"/>
</svg>
