<svg width="517" height="71" viewBox="0 0 517 71" fill="none" xmlns="http://www.w3.org/2000/svg">
<path d="M57.9062 62.1094C54.7812 64.7969 51.2812 66.8594 47.4062 68.2969C43.5312 69.7344 39.5156 70.4531 35.3594 70.4531C32.1719 70.4531 29.0938 70.0312 26.125 69.1875C23.1875 68.375 20.4219 67.2188 17.8281 65.7188C15.2656 64.1875 12.9219 62.3594 10.7969 60.2344C8.67188 58.1094 6.84375 55.7656 5.3125 53.2031C3.8125 50.6094 2.64062 47.8438 1.79688 44.9062C0.984375 41.9375 0.578125 38.8594 0.578125 35.6719C0.578125 32.4844 0.984375 29.4062 1.79688 26.4375C2.64062 23.4688 3.8125 20.7031 5.3125 18.1406C6.84375 15.5469 8.67188 13.1875 10.7969 11.0625C12.9219 8.9375 15.2656 7.125 17.8281 5.625C20.4219 4.09375 23.1875 2.92187 26.125 2.10938C29.0938 1.26562 32.1719 0.84375 35.3594 0.84375C39.5156 0.84375 43.5312 1.5625 47.4062 3C51.2812 4.40625 54.7812 6.46875 57.9062 9.1875L50.7812 20.9062C48.8125 18.7812 46.4844 17.1562 43.7969 16.0312C41.1094 14.875 38.2969 14.2969 35.3594 14.2969C32.3906 14.2969 29.6094 14.8594 27.0156 15.9844C24.4219 17.1094 22.1562 18.6406 20.2188 20.5781C18.2812 22.4844 16.75 24.75 15.625 27.375C14.5 29.9688 13.9375 32.7344 13.9375 35.6719C13.9375 38.6094 14.5 41.375 15.625 43.9688C16.75 46.5312 18.2812 48.7812 20.2188 50.7188C22.1562 52.6562 24.4219 54.1875 27.0156 55.3125C29.6094 56.4375 32.3906 57 35.3594 57C38.2969 57 41.1094 56.4375 43.7969 55.3125C46.4844 54.1562 48.8125 52.5156 50.7812 50.3906L57.9062 62.1094ZM142.052 69H95.9744V1.78125H142.052V15.2344H109.427V28.6875H131.506V42.1406H109.427V55.5469H142.052V69ZM195.167 15.2344V42.1406H208.621C210.464 42.1406 212.199 41.7969 213.824 41.1094C215.449 40.3906 216.871 39.4219 218.089 38.2031C219.308 36.9844 220.261 35.5625 220.949 33.9375C221.667 32.2812 222.027 30.5312 222.027 28.6875C222.027 26.8438 221.667 25.1094 220.949 23.4844C220.261 21.8281 219.308 20.3906 218.089 19.1719C216.871 17.9531 215.449 17 213.824 16.3125C212.199 15.5938 210.464 15.2344 208.621 15.2344H195.167ZM195.167 69H181.714V1.78125H208.621C211.089 1.78125 213.464 2.10938 215.746 2.76562C218.027 3.39062 220.152 4.29688 222.121 5.48438C224.121 6.64063 225.933 8.04688 227.558 9.70312C229.214 11.3281 230.621 13.1406 231.777 15.1406C232.964 17.1406 233.871 19.2812 234.496 21.5625C235.152 23.8438 235.48 26.2188 235.48 28.6875C235.48 31 235.183 33.25 234.589 35.4375C234.027 37.625 233.199 39.7031 232.105 41.6719C231.042 43.6406 229.73 45.4531 228.167 47.1094C226.605 48.7656 224.855 50.2031 222.917 51.4219L230.371 69H216.074L210.214 55.4531L195.167 55.5469V69ZM314.142 42.1406V28.6875C314.142 26.8438 313.783 25.1094 313.064 23.4844C312.376 21.8281 311.423 20.3906 310.204 19.1719C308.986 17.9531 307.548 17 305.892 16.3125C304.267 15.5938 302.533 15.2344 300.689 15.2344C298.845 15.2344 297.095 15.5938 295.439 16.3125C293.814 17 292.392 17.9531 291.173 19.1719C289.954 20.3906 288.986 21.8281 288.267 23.4844C287.579 25.1094 287.236 26.8438 287.236 28.6875V42.1406H314.142ZM327.595 69H314.142V55.5469H287.236V69H273.829V28.6875C273.829 24.9688 274.533 21.4844 275.939 18.2344C277.345 14.9531 279.251 12.0938 281.658 9.65625C284.095 7.21875 286.939 5.29688 290.189 3.89062C293.47 2.48438 296.97 1.78125 300.689 1.78125C304.408 1.78125 307.892 2.48438 311.142 3.89062C314.423 5.29688 317.283 7.21875 319.72 9.65625C322.158 12.0938 324.079 14.9531 325.486 18.2344C326.892 21.4844 327.595 24.9688 327.595 28.6875V69ZM395.663 69H382.257V15.2344H362.054V1.78125H415.819V15.2344H395.663V69ZM516.888 35.6719C516.888 38.8594 516.466 41.9375 515.622 44.9062C514.809 47.8438 513.653 50.6094 512.153 53.2031C510.653 55.7656 508.841 58.1094 506.716 60.2344C504.591 62.3594 502.247 64.1875 499.684 65.7188C497.122 67.2188 494.356 68.375 491.388 69.1875C488.419 70.0312 485.341 70.4531 482.153 70.4531C478.966 70.4531 475.888 70.0312 472.919 69.1875C469.981 68.375 467.216 67.2188 464.622 65.7188C462.059 64.1875 459.716 62.3594 457.591 60.2344C455.466 58.1094 453.638 55.7656 452.106 53.2031C450.606 50.6094 449.434 47.8438 448.591 44.9062C447.778 41.9375 447.372 38.8594 447.372 35.6719C447.372 32.4844 447.778 29.4062 448.591 26.4375C449.434 23.4688 450.606 20.7031 452.106 18.1406C453.638 15.5781 455.466 13.2344 457.591 11.1094C459.716 8.98438 462.059 7.17188 464.622 5.67188C467.216 4.17188 469.981 3.01562 472.919 2.20312C475.888 1.35938 478.966 0.9375 482.153 0.9375C485.341 0.9375 488.419 1.35938 491.388 2.20312C494.356 3.01562 497.122 4.17188 499.684 5.67188C502.247 7.17188 504.591 8.98438 506.716 11.1094C508.841 13.2344 510.653 15.5781 512.153 18.1406C513.653 20.7031 514.809 23.4688 515.622 26.4375C516.466 29.4062 516.888 32.4844 516.888 35.6719ZM503.528 35.6719C503.528 32.7344 502.966 29.9688 501.841 27.375C500.716 24.75 499.184 22.4844 497.247 20.5781C495.341 18.6406 493.075 17.1094 490.45 15.9844C487.856 14.8594 485.091 14.2969 482.153 14.2969C479.184 14.2969 476.403 14.8594 473.809 15.9844C471.216 17.1094 468.95 18.6406 467.013 20.5781C465.075 22.4844 463.544 24.75 462.419 27.375C461.294 29.9688 460.731 32.7344 460.731 35.6719C460.731 38.6094 461.294 41.375 462.419 43.9688C463.544 46.5312 465.075 48.7812 467.013 50.7188C468.95 52.6562 471.216 54.1875 473.809 55.3125C476.403 56.4375 479.184 57 482.153 57C485.091 57 487.856 56.4375 490.45 55.3125C493.075 54.1875 495.341 52.6562 497.247 50.7188C499.184 48.7812 500.716 46.5312 501.841 43.9688C502.966 41.375 503.528 38.6094 503.528 35.6719Z" fill="white"/>
</svg>
